<svg width="455" height="369" viewBox="0 0 455 369" fill="none" xmlns="http://www.w3.org/2000/svg">
<path d="M315.263 107.653C315.263 169.21 277.878 224.414 222.235 245.017C219.961 245.859 217.612 246.67 215.241 247.427C212.864 246.665 210.505 245.852 208.215 245.002C152.592 224.373 115.22 169.176 115.22 107.649V40.6832C116.315 40.7806 117.388 40.8303 118.431 40.8303C137.922 40.8303 153.951 25.7222 155.42 6.60342H274.652C276.123 25.7222 292.151 40.8303 311.64 40.8303C312.855 40.8303 314.065 40.7719 315.263 40.6573V107.653ZM319.957 35.1367C319.3 34.5894 318.434 34.3687 317.589 34.5309C315.657 34.903 313.658 35.0934 311.64 35.0934C294.349 35.0934 280.281 21.0258 280.281 3.73279C280.281 2.14929 278.996 0.864331 277.413 0.864331H152.66C151.076 0.864331 149.792 2.14929 149.792 3.73279C149.792 21.0258 135.723 35.0934 118.431 35.0934C116.664 35.0934 114.783 34.9225 112.837 34.5894C111.998 34.4423 111.148 34.6759 110.502 35.2232C109.855 35.7683 109.482 36.5709 109.482 37.4167V107.649C109.482 171.564 148.359 228.925 206.219 250.382C208.876 251.366 211.622 252.307 214.381 253.175C214.661 253.263 214.951 253.307 215.241 253.307C215.531 253.307 215.821 253.263 216.102 253.175C218.856 252.309 221.588 251.375 224.227 250.397C282.109 228.964 321 171.599 321 107.653V37.3475C321 36.493 320.617 35.6818 319.957 35.1367Z" fill="white"/>
<path d="M287.935 107.651C287.935 156.711 258.768 201.079 215.245 218.429C171.718 201.056 142.548 156.685 142.548 107.649V63.4752C156.636 57.7772 168.172 47.3806 175.328 33.9296H254.74C261.976 47.5277 273.657 57.9805 287.935 63.6396V107.651ZM291.777 58.9605C277.681 53.8725 265.755 43.238 259.057 29.7826C258.573 28.8092 257.578 28.1926 256.49 28.1926H173.579C172.491 28.1926 171.496 28.8091 171.011 29.7848C164.287 43.2943 152.808 53.6065 138.686 58.8177C137.559 59.2331 136.811 60.306 136.811 61.5088V107.649C136.811 159.424 167.915 206.258 214.208 224.185C214.541 224.315 214.893 224.378 215.245 224.378C215.596 224.378 215.946 224.315 216.279 224.185C262.571 206.284 293.672 159.452 293.672 107.651V61.6581C293.672 60.4488 292.912 59.3715 291.777 58.9605Z" fill="white"/>
<path d="M248.685 124.107C248.685 142.529 233.696 157.516 215.276 157.516C196.816 157.516 181.798 142.529 181.798 124.107V89.3866L201.207 105.607C201.797 106.1 202.555 106.346 203.327 106.26C204.091 106.186 204.795 105.806 205.278 105.209C207.676 102.238 211.32 100.536 215.276 100.536C219.174 100.536 222.825 102.247 225.294 105.232C225.78 105.821 226.481 106.193 227.243 106.262C227.991 106.333 228.761 106.096 229.345 105.604L248.685 89.3974V124.107ZM252.767 80.6514C251.757 80.182 250.565 80.3356 249.71 81.0538L227.704 99.4954C224.307 96.482 219.912 94.7969 215.276 94.7969C210.587 94.7969 206.186 96.4777 202.828 99.4846L180.768 81.0494C179.917 80.3399 178.723 80.182 177.715 80.6536C176.705 81.1251 176.061 82.1376 176.061 83.2516V124.107C176.061 145.692 193.652 163.253 215.276 163.253C236.861 163.253 254.422 145.692 254.422 124.107V83.2516C254.422 82.1376 253.775 81.1251 252.767 80.6514Z" fill="white"/>
<path d="M218.109 129.42V121.818C218.109 120.232 216.824 118.95 215.241 118.95C213.657 118.95 212.372 120.232 212.372 121.818V129.42L209.602 132.191C208.481 133.311 208.481 135.128 209.602 136.247C210.162 136.807 210.896 137.088 211.63 137.088C212.364 137.088 213.099 136.807 213.658 136.247L215.241 134.663L216.824 136.247C217.385 136.807 218.118 137.088 218.851 137.088C219.587 137.088 220.32 136.807 220.88 136.247C222.001 135.128 222.001 133.311 220.88 132.191L218.109 129.42Z" fill="white"/>
<path d="M1.376 367C0.949334 367 0.736 366.744 0.736 366.232C0.736 365.464 1.03467 364.525 1.632 363.416C2.31467 362.221 3.04 361.368 3.808 360.856C5.6 359.576 7.05067 358.168 8.16 356.632C9.26933 355.011 10.08 352.707 10.592 349.72L19.04 299.416C19.3813 297.283 20.7467 295.149 23.136 293.016C25.6107 290.883 27.8293 289.816 29.792 289.816C30.7307 289.816 31.2 290.029 31.2 290.456C31.2 290.712 30.7733 291.437 29.92 292.632C29.0667 293.827 28.4267 295.832 28 298.648L19.296 351.384C18.784 354.456 17.8453 356.717 16.48 358.168V358.296C18.9547 358.893 22.6667 359.192 27.616 359.192C34.272 359.192 39.9893 357.315 44.768 353.56C49.5467 349.72 53.1733 344.515 55.648 337.944C58.1227 331.288 59.36 323.821 59.36 315.544C59.36 304.792 57.184 296.813 52.832 291.608C48.48 286.403 41.696 283.8 32.48 283.8C21.5573 283.8 12.768 287.555 6.112 295.064C5.856 295.405 5.472 295.832 4.96 296.344C4.53333 296.856 4.192 297.24 3.936 297.496C3.68 297.667 3.424 297.752 3.168 297.752C2.48533 297.752 2.144 297.411 2.144 296.728C2.144 296.131 2.44267 295.149 3.04 293.784C5.68533 288.493 9.86667 284.355 15.584 281.368C21.3867 278.381 28.0853 276.888 35.68 276.888C46.8587 276.888 55.392 280.173 61.28 286.744C67.2533 293.229 70.24 302.403 70.24 314.264C70.24 323.48 68.5333 332.141 65.12 340.248C61.792 348.269 56.8853 354.755 50.4 359.704C43.9147 364.568 36.192 367 27.232 367C24.416 367 20.8747 366.659 16.608 365.976C13.1947 365.464 10.7627 365.208 9.312 365.208C7.34933 365.208 5.64267 365.507 4.192 366.104C2.74133 366.701 1.80267 367 1.376 367ZM77.254 367C76.742 367 76.486 366.701 76.486 366.104C76.486 365.08 76.9553 363.8 77.894 362.264C78.918 360.728 80.1127 359.704 81.478 359.192L85.062 357.656C86.2567 357.059 87.0673 355.992 87.494 354.456C88.006 352.835 88.518 350.104 89.03 346.264L97.606 285.592C95.8993 285.592 94.278 285.635 92.742 285.72C90.95 285.891 89.3287 286.147 87.878 286.488C86.4273 286.829 85.5313 287 85.19 287C84.678 287 84.422 286.744 84.422 286.232C84.422 285.549 84.806 284.653 85.574 283.544C86.598 281.923 87.7927 280.728 89.158 279.96C90.5233 279.107 92.1873 278.637 94.15 278.552L112.198 278.168C114.502 278.083 116.209 277.869 117.318 277.528C118.513 277.187 119.281 277.016 119.622 277.016C120.219 277.016 120.518 277.272 120.518 277.784C120.518 278.467 120.177 279.32 119.494 280.344C118.555 281.965 117.745 283.075 117.062 283.672C116.379 284.269 115.185 284.653 113.478 284.824L107.206 285.208L97.478 353.304C96.966 355.608 96.1553 357.315 95.046 358.424V358.552C95.8993 358.723 97.0087 358.979 98.374 359.32C99.8247 359.576 101.105 359.704 102.214 359.704C103.579 359.704 104.731 359.448 105.67 358.936C106.694 358.424 107.291 358.168 107.462 358.168C107.889 358.168 108.102 358.424 108.102 358.936C108.102 359.789 107.59 360.771 106.566 361.88C103.494 365.293 100.507 367 97.606 367C96.582 367 95.0033 366.701 92.87 366.104C89.6273 365.336 87.4087 364.952 86.214 364.952C84.5927 364.952 82.758 365.293 80.71 365.976C78.7473 366.659 77.5953 367 77.254 367ZM175.022 368.28C171.011 368.28 168.537 365.379 167.598 359.576C166.83 354.883 166.446 346.477 166.446 334.36L163.246 336.792H147.63C145.667 341.827 143.363 346.349 140.718 350.36C138.158 354.371 135.427 357.357 132.526 359.32V359.576C133.635 360.088 134.702 360.344 135.726 360.344C137.006 360.344 138.201 360.131 139.31 359.704C140.505 359.277 141.23 359.064 141.486 359.064C142.083 359.064 142.382 359.277 142.382 359.704C142.382 360.301 141.785 361.325 140.59 362.776C139.225 364.141 137.774 365.208 136.238 365.976C134.702 366.659 133.251 367 131.886 367C130.777 367 129.198 366.659 127.15 365.976C125.102 365.293 123.566 364.952 122.542 364.952C121.262 364.952 119.982 365.293 118.702 365.976C117.337 366.659 116.441 367 116.014 367C115.587 367 115.374 366.787 115.374 366.36C115.374 365.507 115.715 364.525 116.398 363.416C117.081 362.221 117.891 361.411 118.83 360.984C119.342 360.728 119.854 360.557 120.366 360.472C120.793 360.387 121.347 360.216 122.03 359.96C125.358 358.68 128.259 356.376 130.734 353.048C133.294 349.635 135.47 345.837 137.262 341.656C139.054 337.389 141.102 331.971 143.406 325.4C146.051 317.976 148.313 311.96 150.19 307.352C152.153 302.659 154.457 298.349 157.102 294.424C159.747 290.413 162.777 287.299 166.19 285.08V284.952C164.995 284.781 164.099 284.611 163.502 284.44C163.161 284.355 162.094 284.184 160.302 283.928C158.595 283.672 156.377 283.544 153.646 283.544C149.038 283.544 145.155 284.397 141.998 286.104C138.926 287.811 136.025 290.584 133.294 294.424C132.441 295.789 131.758 296.472 131.246 296.472C130.734 296.472 130.478 296.131 130.478 295.448L130.606 294.168C131.886 288.963 134.787 284.781 139.31 281.624C143.918 278.467 149.251 276.888 155.31 276.888C157.785 276.888 161.497 277.315 166.446 278.168C171.054 279.021 174.339 279.448 176.302 279.448C178.521 279.448 180.867 279.021 183.342 278.168V278.296C181.038 282.136 179.246 288.152 177.966 296.344C176.686 304.451 176.046 314.52 176.046 326.552C176.046 338.925 176.302 347.288 176.814 351.64C176.985 354.115 177.326 355.992 177.838 357.272C178.435 358.467 179.417 359.064 180.782 359.064C181.635 359.064 182.446 358.851 183.214 358.424C184.067 357.997 185.177 357.357 186.542 356.504C188.163 355.395 189.187 354.84 189.614 354.84C190.126 354.84 190.382 355.011 190.382 355.352C190.382 356.035 190.126 356.845 189.614 357.784C187.993 360.685 185.774 363.16 182.958 365.208C180.227 367.256 177.582 368.28 175.022 368.28ZM166.574 329.112C166.745 321.261 167.299 313.496 168.238 305.816C169.177 298.051 170.371 291.736 171.822 286.872H171.694C168.366 288.408 165.123 292.12 161.966 298.008C158.894 303.896 155.353 312.813 151.342 324.76L149.934 329.112H166.574ZM212.218 368.28C208.378 368.28 205.093 367.512 202.362 365.976C199.631 364.355 197.541 362.435 196.09 360.216C194.725 357.997 193.957 355.907 193.786 353.944C193.786 352.237 194.255 350.488 195.194 348.696C196.133 346.904 197.242 345.411 198.522 344.216C199.802 343.021 200.783 342.424 201.466 342.424C201.893 342.424 202.106 342.68 202.106 343.192C202.533 347.885 203.813 352.195 205.946 356.12C208.079 359.96 211.919 361.88 217.466 361.88C221.903 361.88 225.445 360.515 228.09 357.784C230.735 355.053 232.058 351.256 232.058 346.392C232.058 343.491 231.503 340.803 230.394 338.328C229.285 335.853 227.45 333.08 224.89 330.008L212.346 315.16C210.981 313.368 209.914 311.533 209.146 309.656C208.378 307.693 207.994 305.347 207.994 302.616C207.994 298.179 209.018 293.997 211.066 290.072C213.114 286.147 216.101 282.989 220.026 280.6C223.951 278.125 228.517 276.888 233.722 276.888C237.989 276.888 241.487 277.784 244.218 279.576C246.949 281.283 248.314 283.757 248.314 287C248.314 289.475 247.29 292.333 245.242 295.576C244.474 296.856 243.621 297.496 242.682 297.496C241.999 297.496 241.53 297.197 241.274 296.6C241.103 295.917 240.933 294.723 240.762 293.016C240.506 286.189 236.837 282.776 229.754 282.776C225.487 282.776 222.159 283.885 219.77 286.104C217.381 288.237 216.186 291.181 216.186 294.936C216.186 298.691 217.765 302.488 220.922 306.328L233.21 320.536C238.501 326.765 241.146 333.293 241.146 340.12C241.146 345.069 239.738 349.72 236.922 354.072C234.191 358.339 230.565 361.795 226.042 364.44C221.605 367 216.997 368.28 212.218 368.28ZM285.691 368.28C279.206 368.28 274.299 366.36 270.971 362.52C267.643 358.595 265.979 353.048 265.979 345.88C265.979 342.893 266.32 339.352 267.003 335.256L275.835 286.36C275.408 286.36 274.342 286.275 272.635 286.104C269.563 285.848 267.899 285.72 267.643 285.72C262.779 285.72 259.238 287.299 257.019 290.456C256.848 290.712 256.55 291.181 256.123 291.864C255.696 292.461 255.312 292.76 254.971 292.76C254.544 292.76 254.331 292.376 254.331 291.608C254.331 291.437 254.459 290.712 254.715 289.432C255.398 285.848 257.147 283.075 259.963 281.112C262.779 279.149 266.278 278.168 270.459 278.168L274.683 278.296C277.072 278.467 278.992 278.552 280.443 278.552C281.979 278.552 283.6 278.467 285.307 278.296L288.379 278.168C286.843 280.472 285.008 287.768 282.875 300.056L276.731 335.384C275.963 339.565 275.579 343.448 275.579 347.032C275.579 357.613 279.718 362.904 287.995 362.904C300.795 362.904 309.115 351 312.955 327.192L319.483 286.232C319.824 284.184 321.275 282.136 323.835 280.088C326.395 277.955 328.784 276.888 331.003 276.888C332.112 276.888 332.667 277.101 332.667 277.528C332.667 277.699 332.24 278.467 331.387 279.832C330.534 281.112 329.894 283.117 329.467 285.848L322.427 328.728C321.147 336.579 318.758 343.491 315.259 349.464C311.76 355.437 307.451 360.088 302.331 363.416C297.211 366.659 291.664 368.28 285.691 368.28ZM339.114 367C338.602 367 338.346 366.616 338.346 365.848C338.346 364.995 338.602 364.056 339.114 363.032C339.626 362.008 340.266 361.155 341.034 360.472C343.167 358.765 344.575 357.528 345.258 356.76C346.026 355.907 346.623 354.925 347.05 353.816C347.477 352.707 347.989 350.744 348.586 347.928L361.77 286.36H360.874C360.362 286.36 359.253 286.275 357.546 286.104C354.474 285.848 352.81 285.72 352.554 285.72C347.775 285.72 344.149 287.299 341.674 290.456C341.503 290.712 341.205 291.181 340.778 291.864C340.351 292.461 339.967 292.76 339.626 292.76C339.199 292.76 338.986 292.376 338.986 291.608C338.986 290.755 339.114 290.029 339.37 289.432C340.223 285.848 342.058 283.075 344.874 281.112C347.69 279.149 351.146 278.168 355.242 278.168L359.466 278.296C361.855 278.467 363.775 278.552 365.226 278.552C366.591 278.552 368.127 278.467 369.834 278.296L373.162 278.168C372.821 279.277 372.65 280.899 372.65 283.032C372.65 285.848 373.034 289.432 373.802 293.784C374.655 298.051 375.935 303.939 377.642 311.448L381.61 330.008C381.781 330.776 382.335 333.891 383.274 339.352C386.858 332.269 391.594 322.883 397.482 311.192C403.455 299.416 408.319 289.859 412.074 282.52C415.317 276.376 418.303 271.555 421.034 268.056C423.85 264.472 426.751 261.656 429.738 259.608C432.213 257.987 434.73 256.835 437.29 256.152C439.85 255.384 443.007 254.872 446.762 254.616C449.663 254.445 451.541 254.189 452.394 253.848C452.565 253.763 452.735 253.677 452.906 253.592C453.162 253.421 453.375 253.336 453.546 253.336C453.973 253.336 454.186 253.677 454.186 254.36C454.186 257.261 451.541 259.139 446.25 259.992C445.909 260.077 444.842 260.248 443.05 260.504C441.258 260.76 439.466 261.229 437.674 261.912C435.967 262.509 434.474 263.32 433.194 264.344C430.378 266.563 427.946 270.232 425.898 275.352C423.85 280.387 422.186 287.555 420.906 296.856C420.309 300.611 419.583 307.352 418.73 317.08C417.706 329.88 416.298 341.827 414.506 352.92C414.25 354.968 413.439 356.76 412.074 358.296V358.424C414.207 359.192 415.999 359.576 417.45 359.576C418.645 359.576 419.882 359.363 421.162 358.936C422.442 358.424 423.21 358.168 423.466 358.168C423.893 358.168 424.106 358.424 424.106 358.936C424.106 359.619 423.551 360.557 422.442 361.752C419.455 365.251 416.895 367 414.762 367C414.079 367 412.458 366.659 409.898 365.976C406.826 365.208 404.821 364.824 403.882 364.824C402.346 364.824 400.725 365.208 399.018 365.976C397.397 366.659 396.501 367 396.33 367C395.818 367 395.562 366.616 395.562 365.848C395.562 365.08 395.818 364.227 396.33 363.288C396.842 362.264 397.61 361.325 398.634 360.472C401.109 358.68 402.687 357.315 403.37 356.376C404.138 355.437 404.65 354.157 404.906 352.536L405.546 346.776C406.485 338.243 407.381 329.965 408.234 321.944C409.173 313.923 410.026 306.413 410.794 299.416H410.538C397.397 322.712 388.949 339.437 385.194 349.592C383.914 352.323 382.421 355.011 380.714 357.656C379.007 360.301 377.77 361.624 377.002 361.624C376.319 361.624 375.978 361.197 375.978 360.344C375.722 355.139 375.295 350.659 374.698 346.904C374.186 343.064 373.077 337.005 371.37 328.728C370.005 321.901 369.322 318.488 369.322 318.488C367.701 311.32 366.549 305.603 365.866 301.336H365.738L354.986 352.92C354.73 355.053 353.962 356.845 352.682 358.296V358.424C354.986 359.192 356.693 359.576 357.802 359.576C358.826 359.576 359.807 359.363 360.746 358.936C361.685 358.424 362.282 358.168 362.538 358.168C362.965 358.168 363.178 358.424 363.178 358.936C363.178 359.704 362.623 360.643 361.514 361.752C358.271 365.251 355.711 367 353.834 367C353.066 367 351.829 366.659 350.122 365.976C349.866 365.891 349.226 365.677 348.202 365.336C347.263 364.995 346.325 364.824 345.386 364.824C344.021 364.824 342.698 365.208 341.418 365.976C340.138 366.659 339.37 367 339.114 367Z" fill="white"/>
</svg>
