<svg width="212" height="254" viewBox="0 0 212 254" fill="none" xmlns="http://www.w3.org/2000/svg">
<path d="M206.263 107.653C206.263 169.21 168.878 224.414 113.235 245.017C110.961 245.859 108.612 246.67 106.241 247.427C103.864 246.665 101.505 245.852 99.215 245.002C43.5918 224.373 6.21957 169.176 6.21957 107.649V40.6832C7.31504 40.7806 8.38779 40.8303 9.43134 40.8303C28.9222 40.8303 44.9506 25.7222 46.4198 6.60342H165.652C167.123 25.7222 183.151 40.8303 202.64 40.8303C203.855 40.8303 205.065 40.7719 206.263 40.6573V107.653ZM210.957 35.1367C210.3 34.5894 209.434 34.3687 208.589 34.5309C206.657 34.903 204.658 35.0934 202.64 35.0934C185.349 35.0934 171.281 21.0258 171.281 3.73279C171.281 2.14929 169.996 0.864331 168.413 0.864331H43.6604C42.0763 0.864331 40.7917 2.14929 40.7917 3.73279C40.7917 21.0258 26.723 35.0934 9.43134 35.0934C7.66375 35.0934 5.78259 34.9225 3.83697 34.5894C2.99806 34.4423 2.1479 34.6759 1.50196 35.2232C0.854931 35.7683 0.482422 36.5709 0.482422 37.4167V107.649C0.482422 171.564 39.3588 228.925 97.219 250.382C99.8763 251.366 102.622 252.307 105.381 253.175C105.661 253.263 105.951 253.307 106.241 253.307C106.531 253.307 106.821 253.263 107.102 253.175C109.856 252.309 112.588 251.375 115.227 250.397C173.109 228.964 212 171.599 212 107.653V37.3475C212 36.493 211.617 35.6818 210.957 35.1367Z" fill="white"/>
<path d="M178.935 107.651C178.935 156.711 149.768 201.079 106.245 218.429C62.7176 201.056 33.5479 156.685 33.5479 107.649V63.4752C47.6361 57.7772 59.1722 47.3806 66.3285 33.9296H145.74C152.976 47.5277 164.657 57.9805 178.935 63.6396V107.651ZM182.777 58.9605C168.681 53.8725 156.755 43.238 150.057 29.7826C149.573 28.8092 148.578 28.1926 147.49 28.1926H64.579C63.4907 28.1926 62.4961 28.8091 62.0115 29.7848C55.2868 43.2943 43.808 53.6065 29.6861 58.8177C28.5586 59.2331 27.8105 60.306 27.8105 61.5088V107.649C27.8105 159.424 58.9146 206.258 105.208 224.185C105.541 224.315 105.893 224.378 106.245 224.378C106.596 224.378 106.946 224.315 107.279 224.185C153.571 206.284 184.672 159.452 184.672 107.651V61.6581C184.672 60.4488 183.912 59.3715 182.777 58.9605Z" fill="white"/>
<path d="M139.685 124.107C139.685 142.529 124.696 157.516 106.276 157.516C87.8162 157.516 72.7979 142.529 72.7979 124.107V89.3866L92.2074 105.607C92.7971 106.1 93.5549 106.346 94.3268 106.26C95.0915 106.186 95.7945 105.806 96.2778 105.209C98.676 102.238 102.32 100.536 106.276 100.536C110.174 100.536 113.825 102.247 116.294 105.232C116.78 105.821 117.481 106.193 118.243 106.262C118.991 106.333 119.761 106.096 120.345 105.604L139.685 89.3974V124.107ZM143.767 80.6514C142.757 80.182 141.565 80.3356 140.71 81.0538L118.704 99.4954C115.307 96.482 110.912 94.7969 106.276 94.7969C101.587 94.7969 97.1855 96.4777 93.8281 99.4846L71.7684 81.0494C70.9168 80.3399 69.7233 80.182 68.7148 80.6536C67.705 81.1251 67.0605 82.1376 67.0605 83.2516V124.107C67.0605 145.692 84.6521 163.253 106.276 163.253C127.861 163.253 145.422 145.692 145.422 124.107V83.2516C145.422 82.1376 144.775 81.1251 143.767 80.6514Z" fill="white"/>
<path d="M109.109 129.42V121.818C109.109 120.232 107.824 118.95 106.241 118.95C104.657 118.95 103.372 120.232 103.372 121.818V129.42L100.602 132.191C99.4811 133.311 99.4811 135.128 100.602 136.247C101.162 136.807 101.896 137.088 102.63 137.088C103.364 137.088 104.099 136.807 104.658 136.247L106.241 134.663L107.824 136.247C108.385 136.807 109.118 137.088 109.851 137.088C110.587 137.088 111.32 136.807 111.88 136.247C113.001 135.128 113.001 133.311 111.88 132.191L109.109 129.42Z" fill="white"/>
</svg>